<svg xmlns="http://www.w3.org/2000/svg" viewBox="0 0 106.92 106.92"><defs><style>.cls-1{fill:#3a485f;}</style></defs><title>RandonneÌe</title><g id="Calque_2" data-name="Calque 2"><g id="Calque_19" data-name="Calque 19"><path class="cls-1" d="M106.92,73.06V69.5H87.32a1.74,1.74,0,0,0-1.26.52l-12,12H71.28V41h1.6a5.53,5.53,0,0,0,.55-11l-2.15-.2v-3H67.71V29.4l-8.44-.84-15.78-7a1.81,1.81,0,0,0-.72-.17H36.06a5.32,5.32,0,0,0-4.78,3l-.8,1.6a1.93,1.93,0,0,0-.17.53L26.75,49.63a1.84,1.84,0,0,0,.07.84L32,66.09,29.43,81.7A6.36,6.36,0,0,0,34.66,89a6.2,6.2,0,0,0,.74.08H26.73a1.8,1.8,0,0,0-1.26.52l-6.61,6.61H0v3.56H19.6a1.8,1.8,0,0,0,1.26-.52l6.61-6.61H49.9a1.77,1.77,0,0,0,1.25-.52l6.61-6.61h49.16V82H79.14l8.91-8.91Zm-74,9.21,2.67-16a1.67,1.67,0,0,0-.07-.86l-5.2-15.63,3.45-22.46.68-1.35a1.74,1.74,0,0,1,1.59-1h6.33l15.69,7a2.05,2.05,0,0,0,.55.16l14.45,1.44a2,2,0,0,1-.2,3.9H59.09L48.68,34a1.79,1.79,0,0,0-2.26,1.13L42.86,45.77a1.77,1.77,0,0,0-.09.56V67.48l-4.37,16a2.8,2.8,0,0,1-5.46-1.2ZM46.33,52.92l12.56,7,1.3,15.5a2.73,2.73,0,0,1-2.48,2.94h-.22a2.72,2.72,0,0,1-2.7-2.42L53.46,64a1.8,1.8,0,0,0-1-1.4l-6.15-3.06ZM67.71,82H57a1.81,1.81,0,0,0-1.26.52l-6.6,6.61H36a6.36,6.36,0,0,0,5.83-4.68L46.27,68.2a2,2,0,0,0,.06-.49V63.47L50,65.31l1.23,11a6.28,6.28,0,0,0,6.24,5.59h0a6.28,6.28,0,0,0,6.25-6.3,4.35,4.35,0,0,0,0-.51L62.37,58.66a1.77,1.77,0,0,0-.91-1.41l-15.13-8.4V46.62l2.91-8.73,9,3a2.13,2.13,0,0,0,.56.1h8.91Z"/><path class="cls-1" d="M62.37,96.23a1.75,1.75,0,0,0-1.26.52l-6.61,6.6H0v3.57H55.24a1.8,1.8,0,0,0,1.26-.52l6.61-6.61h43.81V96.23Z"/><path class="cls-1" d="M48.11,0h-8a9.77,9.77,0,0,0-9.8,9.74A9.67,9.67,0,0,0,30.83,13v0l0,0a9.8,9.8,0,0,0,19-3.23v-8A1.79,1.79,0,0,0,48.11,0ZM46.33,9.8a6.21,6.21,0,0,1-11.07,3.89A19.51,19.51,0,0,1,46.33,9Zm0-4.37A23.1,23.1,0,0,0,33.9,10.21c0-.14,0-.27,0-.41a6.24,6.24,0,0,1,6.23-6.24h6.24V5.43Z"/></g></g></svg>