<svg xmlns="http://www.w3.org/2000/svg" viewBox="0 0 109.86 115.72"><defs><style>.cls-1{fill:#3a485f;stroke:#fff;stroke-miterlimit:10;stroke-width:0.5px;}</style></defs><title>tropical</title><g id="Calque_2" data-name="Calque 2"><g id="Calque_1-2" data-name="Calque 1"><path class="cls-1" d="M108.93,32.33c-6.58-7.39-14.63-11.76-23.29-12.64a1.69,1.69,0,0,0-.34,3.36c7.1.72,13.78,4.08,19.44,9.76a94,94,0,0,0-44.59,0,32.88,32.88,0,0,1,17.72-9.54,1.69,1.69,0,1,0-.55-3.33,34.47,34.47,0,0,0-15,6.53A126.82,126.82,0,0,1,82.64,3.22a1.69,1.69,0,0,0-1.11-3c-14,0-22.71,6.91-26.38,18.51C51.48,7.16,42.77.25,28.77.25a1.69,1.69,0,0,0-1.11,3,127.19,127.19,0,0,1,20.27,23.2C33.11,15.4,14,17.6.85,32.93a2.45,2.45,0,0,0,2.52,4A90.37,90.37,0,0,1,34,33.71C20.75,37.25,10.77,48.62,9.38,65.44a2.43,2.43,0,0,0,4.33,1.72A90.39,90.39,0,0,1,39.78,44.77a9.25,9.25,0,0,0,8.74,8c.26,3.55.58,7.14.95,10.7.13,1.19.27,2.44.42,3.74v0c.9,7.56,2.3,17.08,4.49,27.17a.36.36,0,0,0,0,.1c.65,3,1.37,6,2.17,9.12a10.31,10.31,0,0,0-10.9,4.76,8,8,0,0,0-13.78,3.67H27a1.69,1.69,0,1,0,0,3.38h52.5a1.69,1.69,0,1,0,0-3.38H73a226.4,226.4,0,0,1-9.26-42,1.68,1.68,0,1,0-3.34.44q.45,3.41,1,6.71h-.87a1.69,1.69,0,1,0,0,3.38H61.9a217.38,217.38,0,0,0,7.52,31.44H64.69a10.25,10.25,0,0,0-4.17-6.7c-.88-3.21-1.67-6.41-2.38-9.56h.68a1.69,1.69,0,1,0,0-3.38H57.4c-1.83-8.67-3.08-16.87-3.92-23.68h1a1.69,1.69,0,0,0,0-3.38H53.08c-.09-.77-.17-1.52-.25-2.24-.38-3.6-.7-7.23-1-10.82l.07,0a9.1,9.1,0,0,0,3.2-1.9,9.19,9.19,0,0,0,3.38,2c.25,3.42.56,6.87.92,10.28a1.69,1.69,0,0,0,3.36-.36c-.33-3.14-.62-6.33-.86-9.49a9.25,9.25,0,0,0,8.57-8A90.34,90.34,0,0,1,96.79,67.43a2.33,2.33,0,0,0,4.15-1.61C99.68,48.88,89.72,37.3,76.34,33.71a90.46,90.46,0,0,1,29.9,3A2.67,2.67,0,0,0,108.93,32.33ZM35.4,112.09a4.64,4.64,0,0,1,8.64,0Zm23.41-3.76a7,7,0,0,1,2.43,3.76H47.75A7,7,0,0,1,58.81,108.33ZM5.55,32.81c13.11-13.1,31.32-13.33,44.62,0A94.16,94.16,0,0,0,5.55,32.81ZM40.16,40.7a93.89,93.89,0,0,0-27,21.85c2.63-16.42,14.68-26.88,30.64-26.64A9.2,9.2,0,0,0,40.16,40.7Zm12.93,7a5.77,5.77,0,0,1-3.26,1.67h0a6.07,6.07,0,0,1-.85.06,5.86,5.86,0,1,1,4.15-10A9.28,9.28,0,0,0,53.09,47.69Zm.26-18.93C47.09,17.88,38.27,8.62,33.41,3.93c12.67,1.73,18.8,10.86,20,23.61C53.4,28,53.37,28.36,53.35,28.76ZM76.89,3.93C72,8.62,63.21,17.88,57,28.76c0-.41-.06-.83-.09-1.26C58.08,14.93,64.11,5.68,76.89,3.93ZM58.22,48.52a5.86,5.86,0,1,1,9-5A5.86,5.86,0,0,1,58.22,48.52Zm39,14a94,94,0,0,0-27-21.85,9.21,9.21,0,0,0-3.6-4.79C82.47,35.67,94.53,46.11,97.17,62.55Z"/></g></g></svg>