<svg xmlns="http://www.w3.org/2000/svg" viewBox="0 0 107.58 61.97"><defs><style>.cls-1{fill:#3a485f;}</style></defs><title>mer</title><g id="Calque_2" data-name="Calque 2"><g id="Calque_10" data-name="Calque 10"><path class="cls-1" d="M105.76,6.81c-3,0-4.41-1.29-6.2-2.93C97.58,2.06,95.33,0,90.91,0s-6.67,2.06-8.66,3.88c-1.78,1.64-3.19,2.93-6.19,2.93s-4.41-1.29-6.19-2.93C67.88,2.06,65.63,0,61.21,0s-6.67,2.06-8.65,3.88c-1.79,1.64-3.19,2.93-6.2,2.93S42,5.52,40.17,3.88C38.19,2.06,35.94,0,31.52,0s-6.67,2.06-8.66,3.88c-1.78,1.64-3.19,2.93-6.19,2.93s-4.41-1.29-6.19-2.93C8.49,2.06,6.24,0,1.82,0a1.83,1.83,0,0,0,0,3.65c3,0,4.41,1.29,6.19,2.92,2,1.82,4.24,3.88,8.66,3.88s6.67-2.06,8.66-3.88c1.78-1.63,3.19-2.92,6.19-2.92s4.41,1.29,6.19,2.92c2,1.82,4.23,3.88,8.65,3.88S53,8.39,55,6.57c1.78-1.63,3.19-2.92,6.19-2.92s4.41,1.29,6.19,2.92c2,1.82,4.24,3.88,8.66,3.88s6.67-2.06,8.66-3.88c1.78-1.63,3.18-2.92,6.19-2.92s4.41,1.29,6.19,2.92c2,1.82,4.23,3.88,8.66,3.88a1.82,1.82,0,0,0,0-3.64Z"/><path class="cls-1" d="M105.76,24c-3,0-4.41-1.29-6.2-2.92-2-1.82-4.23-3.89-8.65-3.89s-6.67,2.07-8.66,3.89C80.47,22.69,79.06,24,76.06,24s-4.41-1.29-6.19-2.92c-2-1.82-4.24-3.89-8.66-3.89s-6.67,2.07-8.65,3.89C50.77,22.69,49.37,24,46.36,24s-4.4-1.29-6.19-2.92l-.68-.63a1.82,1.82,0,1,0-2.43,2.72l.65.59c2,1.82,4.23,3.89,8.65,3.89S53,25.56,55,23.74c1.78-1.63,3.19-2.92,6.19-2.92s4.41,1.29,6.19,2.92c2,1.82,4.24,3.89,8.66,3.89s6.67-2.07,8.66-3.89c1.78-1.63,3.18-2.92,6.19-2.92s4.41,1.29,6.19,2.92c2,1.82,4.23,3.89,8.66,3.89a1.83,1.83,0,0,0,0-3.65Z"/><path class="cls-1" d="M34.12,17.45a11.45,11.45,0,0,0-2.6-.28c-4.42,0-6.67,2.07-8.66,3.89C21.08,22.69,19.67,24,16.67,24s-4.41-1.29-6.19-2.92c-2-1.82-4.24-3.89-8.66-3.89a1.83,1.83,0,0,0,0,3.65c3,0,4.41,1.29,6.19,2.92,2,1.82,4.24,3.89,8.66,3.89s6.67-2.07,8.66-3.89c1.78-1.63,3.19-2.92,6.19-2.92a8.51,8.51,0,0,1,1.8.18,1.82,1.82,0,1,0,.8-3.55Z"/><path class="cls-1" d="M105.76,58.32c-3,0-4.41-1.29-6.2-2.92-2-1.82-4.23-3.88-8.65-3.88s-6.67,2.06-8.66,3.88c-1.78,1.63-3.19,2.92-6.19,2.92S71.65,57,69.87,55.4c-2-1.82-4.24-3.88-8.66-3.88s-6.67,2.06-8.65,3.88c-1.79,1.63-3.19,2.92-6.2,2.92S42,57,40.17,55.4c-2-1.82-4.23-3.88-8.65-3.88s-6.67,2.06-8.66,3.88c-1.78,1.63-3.19,2.92-6.19,2.92a1.83,1.83,0,0,0,0,3.65c4.42,0,6.67-2.06,8.66-3.88,1.78-1.64,3.19-2.93,6.19-2.93s4.41,1.29,6.19,2.93c2,1.82,4.23,3.88,8.65,3.88S53,59.91,55,58.09c1.78-1.64,3.19-2.93,6.19-2.93s4.41,1.29,6.19,2.93c2,1.82,4.24,3.88,8.66,3.88s6.67-2.06,8.66-3.88c1.78-1.64,3.18-2.93,6.19-2.93s4.41,1.29,6.19,2.93c2,1.82,4.23,3.88,8.66,3.88a1.83,1.83,0,0,0,0-3.65Z"/><path class="cls-1" d="M12.4,57a21.44,21.44,0,0,1-1.92-1.62c-2-1.82-4.24-3.88-8.66-3.88a1.82,1.82,0,1,0,0,3.64c3,0,4.41,1.29,6.19,2.93A24.63,24.63,0,0,0,10.3,60a1.82,1.82,0,0,0,2.1-3Z"/><path class="cls-1" d="M105.76,41.15c-3,0-4.41-1.29-6.2-2.92-2-1.82-4.23-3.89-8.65-3.89s-6.67,2.07-8.66,3.89a1.83,1.83,0,0,0,2.47,2.69C86.5,39.28,87.9,38,90.91,38s4.41,1.29,6.19,2.93c2,1.82,4.23,3.88,8.66,3.88a1.83,1.83,0,0,0,0-3.65Z"/><path class="cls-1" d="M80.29,42.23a1.82,1.82,0,0,0-2.22-1.31,7.93,7.93,0,0,1-2,.23c-3,0-4.41-1.29-6.19-2.92-2-1.82-4.24-3.89-8.66-3.89s-6.67,2.07-8.65,3.89c-1.79,1.63-3.19,2.92-6.2,2.92s-4.4-1.29-6.19-2.92c-2-1.82-4.23-3.89-8.65-3.89s-6.67,2.07-8.66,3.89c-1.78,1.63-3.19,2.92-6.19,2.92s-4.41-1.29-6.19-2.92c-2-1.82-4.24-3.89-8.66-3.89a1.83,1.83,0,0,0,0,3.65c3,0,4.41,1.29,6.19,2.93,2,1.82,4.24,3.88,8.66,3.88s6.67-2.06,8.66-3.88C27.11,39.28,28.52,38,31.52,38s4.41,1.29,6.19,2.93c2,1.82,4.23,3.88,8.65,3.88S53,42.74,55,40.92C56.8,39.28,58.21,38,61.21,38s4.41,1.29,6.19,2.93c2,1.82,4.24,3.88,8.66,3.88A11.92,11.92,0,0,0,79,44.45,1.83,1.83,0,0,0,80.29,42.23Z"/></g></g></svg>